<?xml version="1.0" encoding="UTF-8" standalone="no"?><!DOCTYPE svg PUBLIC "-//W3C//DTD SVG 1.1//EN" "http://www.w3.org/Graphics/SVG/1.1/DTD/svg11.dtd"><svg width="32" height="32" viewBox="0 0 17067 17067" version="1.1" xmlns="http://www.w3.org/2000/svg" xmlns:xlink="http://www.w3.org/1999/xlink" xml:space="preserve" xmlns:serif="http://www.serif.com/" style="fill-rule:evenodd;clip-rule:evenodd;stroke-linejoin:round;stroke-miterlimit:2;"><g id="Background"><path d="M2272.562,12559.154c-0.795,-25.73 -1.646,-24.473 -1.57,-50.849c6.852,-2392.574 -4.326,-2392.361 -0.057,-2600.345c1.001,-48.782 74.347,-33.954 87.399,-33.945c11408.953,8.134 11408.102,-9.255 12400.065,-0.112c71.376,0.658 32.532,51.1 37.348,2567.752c0.184,96.071 24.93,137.454 -70.746,137.448c-12404.953,-0.848 -12404.958,-0.234 -12434.154,-1.665l-18.284,-18.284Z" style="fill:#00d4a2;"/><path d="M17066.65,4491.667c-382.27,0.086 -764.54,0.172 -1146.81,0.258c-0.09,-1000.086 -0.18,-2000.172 -0.271,-3000.258c-0,-297.399 14.615,-344.51 -44.623,-344.579c-1177.077,-1.381 -14664.709,-17.206 -14713.471,2.493c-18.883,7.628 -10.155,17.968 -14.647,3342.344c-382.276,-0.086 -764.551,-0.172 -1146.827,-0.258l0,-4491.667c24.937,-21.101 30.159,0 408.333,0l16658.317,0c19.276,35.808 0,38.964 0,508.333c0,1327.778 0,2655.556 0,3983.333Z" style="fill:#a1ffe9;"/><path d="M17066.65,12575l0,4491.65c-24.937,21.1 -30.158,0 -408.317,0c-5552.778,0 -11105.556,0 -16658.333,0c-17.12,-31.789 0,-72.211 0,-108.317l0,-4383.333c380.244,-0.038 760.488,-0.076 1140.732,-0.115c-1.993,130.336 -1.786,130.03 -1.786,1716.781c-0,1616.675 -1.06,1619.186 7.904,1628.15c8.295,8.295 11.573,7.904 12428.15,7.904c2333.82,-0 2344.728,2.404 2350.809,-19.1c2.968,-10.495 3.376,-3060.524 0.126,-3333.735c380.238,0.038 760.477,0.076 1140.715,0.115Z" style="fill:#009774;"/><path d="M2858.333,4485.608c11920.053,0 11923.415,-0.89 11931.812,7.57c12.205,12.297 12.507,1784.653 -0.175,1796.734c-11.56,11.013 -12501.719,11.009 -12513.275,-0c-12.69,-12.089 -12.377,-1784.424 -0.167,-1796.726c9.15,-9.218 10.167,-7.578 581.804,-7.578Z" style="fill:#5dffd9;"/><path d="M9041.667,3415.702c-38.463,0.889 -6734.567,3.628 -6751.911,-1.413c-25.251,-7.339 -20.758,-19.836 -20.962,-1039.289c-0.003,-13.669 -19.107,-105.766 39.243,-106.239c993.324,-8.06 992.71,2.982 12416.964,0.033c96.974,-0.025 72.889,42.219 72.872,139.539c-0.17,987.554 4.139,1001.736 -20.962,1005.962c-9.611,1.618 -5572.075,4.134 -5735.244,1.407Z" style="fill:#a1ffe9;"/><path d="M8241.667,13652.256c6532.18,0 6535.605,-1.233 6544.894,10.398c1.244,1.558 6.954,1.879 6.174,1029.013c-0.006,8.004 -0.067,87.796 -18.364,98.354c-7.408,4.275 -8.414,2.187 -12432.704,2.714c-102.855,0.004 -67.736,-48.328 -67.733,-151.067c0.024,-970.482 -2.749,-979.289 16.344,-986.361c9.214,-3.413 9.479,-3.05 5951.39,-3.05Z" style="fill:#009774;"/><path d="M0,9875l0,-3583.333c267.132,-10.001 1069.907,-6.62 1146.272,0.197c-1.352,929.41 1.858,3209.589 -1.575,3583.625c-61.997,5.358 -858.763,11.111 -1144.698,-0.489Z" style="fill:#00ffc3;"/><path d="M17066.65,6291.667l0,3583.333c-285.892,11.599 -1082.681,5.848 -1144.681,0.489c-3.218,-195.292 -0.377,-2348.526 -1.575,-3583.625c76.368,-6.818 879.163,-10.198 1146.256,-0.197Z" style="fill:#00ffc3;"/><path d="M0,12575l0,-2700c285.934,11.6 1082.7,5.847 1144.698,0.489c-6.253,510.862 2.848,2221.239 -3.966,2699.396c-380.244,0.038 -760.488,0.076 -1140.732,0.115Z" style="fill:#00d4a2;"/><path d="M17066.65,9875l0,2700c-380.238,-0.038 -760.477,-0.076 -1140.715,-0.115c-6.785,-423.14 2.29,-2131.355 -3.966,-2699.396c62,5.358 858.789,11.11 1144.681,-0.489Z" style="fill:#00d4a2;"/><path d="M0,6291.667l0,-1800c382.276,0.086 764.551,0.172 1146.827,0.258c-0.185,599.98 -0.37,1199.96 -0.555,1799.94c-76.366,-6.817 -879.141,-10.199 -1146.272,-0.197Z" style="fill:#5dffd9;"/><path d="M17066.65,4491.667l0,1800c-267.093,-10.001 -1069.888,-6.62 -1146.256,0.197c-0.185,-599.98 -0.37,-1199.96 -0.555,-1799.94c382.27,-0.086 764.54,-0.172 1146.81,-0.258Z" style="fill:#5dffd9;"/></g></svg>